<?xml version="1.0" encoding="UTF-8" standalone="no"?>
<svg width="75px" height="75px" viewBox="0 0 75 75" version="1.1" xmlns="http://www.w3.org/2000/svg" xmlns:xlink="http://www.w3.org/1999/xlink" xmlns:sketch="http://www.bohemiancoding.com/sketch/ns">
    <!-- Generator: Sketch 3.4.4 (17249) - http://www.bohemiancoding.com/sketch -->
    <title>Anfart</title>
    <desc>Created with Sketch.</desc>
    <defs></defs>
    <g id="Page-1" stroke="none" stroke-width="1" fill="none" fill-rule="evenodd" sketch:type="MSPage">
        <g id="Anfart" sketch:type="MSLayerGroup" transform="translate(1.000000, 1.000000)">
            <g id="Group" transform="translate(16.000000, 18.000000)" fill="#000000" sketch:type="MSShapeGroup">
                <path d="M15.51153,0.258177778 L18.91371,0.258177778 L18.56808,9.33345556 L13.78133,9.33345556 L15.51153,0.258177778 Z" id="Shape"></path>
                <path d="M12.3984,16.6179333 L18.39588,16.6179333 L17.76079,36.7418222 L8.59442,36.7418222 L12.3984,16.6179333 Z" id="Shape"></path>
                <path d="M25.37285,0.258177778 L21.97067,0.258177778 L22.3163,9.33345556 L27.10264,9.33345556 L25.37285,0.258177778 Z" id="Shape"></path>
                <path d="M28.48721,16.6179333 L22.49014,16.6179333 L23.12318,36.7418222 L32.29324,36.7418222 L28.48721,16.6179333 Z" id="Shape"></path>
                <path d="M36.32887,15.7517222 L36.32887,19.5664222 L33.62123,19.5664222 L32.58106,15.2308444 C32.35269,14.4781 31.88939,14.3650444 31.13868,14.3650444 L9.51405,14.3650444 C8.82238,14.4217778 8.41894,14.4781 8.2451,15.2308444 L7.20821,19.5664222 L4.49729,19.5664222 L4.49729,15.7517222 C4.49729,15.0581778 4.26728,14.3650444 2.99915,14.3650444 L0,14.3650444 L0,11.6488333 L41,11.6488333 L41,14.3650444 L37.65563,14.3650444 C36.84834,14.3650444 36.32887,14.6540556 36.32887,15.7517222" id="Shape"></path>
            </g>
            <g id="button" stroke="#000000" stroke-width="2" sketch:type="MSShapeGroup" opacity="0.8">
                <circle cx="36.5" cy="36.5" r="36.5"></circle>
            </g>
        </g>
    </g>
</svg>